<?xml version="1.0" standalone="no"?>
<!DOCTYPE svg PUBLIC "-//W3C//DTD SVG 20010904//EN"
 "http://www.w3.org/TR/2001/REC-SVG-20010904/DTD/svg10.dtd">
<svg version="1.0" xmlns="http://www.w3.org/2000/svg"
 width="275.000000pt" height="74.000000pt" viewBox="0 0 275.000000 74.000000"
 preserveAspectRatio="xMidYMid meet">

<g transform="translate(0.000000,74.000000) scale(0.100000,-0.100000)"
fill="#000000" stroke="none">
<path d="M295 724 c-75 -19 -85 -25 -85 -54 0 -29 0 -29 -80 -36 -44 -3 -82
-10 -84 -13 -3 -4 0 -28 6 -54 13 -65 61 -124 132 -163 32 -17 63 -42 70 -55
13 -27 50 -36 72 -18 13 11 19 8 39 -17 14 -16 22 -35 20 -42 -3 -8 -5 -17 -5
-22 0 -4 -11 -11 -24 -14 -14 -3 -28 -15 -31 -26 -3 -11 -12 -20 -19 -20 -11
0 -20 -12 -44 -62 -2 -5 78 -8 178 -8 100 0 180 3 178 8 -24 50 -33 62 -44 62
-7 0 -15 9 -19 19 -3 11 -16 23 -28 27 -43 13 -46 37 -12 78 20 25 26 28 39
17 22 -18 59 -9 72 18 7 13 38 38 70 55 71 39 119 98 132 163 6 26 9 50 6 54
-2 3 -40 10 -84 13 -80 7 -80 8 -80 36 0 22 -6 31 -32 41 -33 12 -304 22 -343
13z m298 -44 c50 -15 44 -20 -10 -10 -54 9 -56 -3 -3 -19 21 -6 42 -16 45 -22
4 -5 -3 -41 -14 -79 -16 -53 -25 -68 -36 -63 -10 3 -31 -11 -58 -41 -34 -36
-50 -46 -76 -46 -40 0 -69 14 -100 48 -15 17 -21 21 -17 10 11 -34 -4 -17 -29
33 -15 28 -29 72 -32 98 -5 48 -5 48 33 65 l39 17 -44 -5 c-55 -6 -41 11 20
24 55 11 232 5 282 -10z m-363 -80 c0 -6 -28 -10 -65 -10 -72 0 -80 -9 -45
-53 11 -14 20 -30 20 -36 0 -17 67 -62 112 -76 44 -12 61 -38 33 -48 -9 -4
-15 -1 -15 8 0 7 -15 19 -34 25 -82 27 -156 110 -156 175 0 25 1 25 75 25 43
0 75 -4 75 -10z m570 -15 c0 -65 -74 -148 -156 -175 -19 -7 -32 -16 -29 -21 4
-5 -3 -9 -14 -9 -42 0 -19 29 37 48 54 18 90 50 114 100 12 26 24 50 25 53 2
4 -22 11 -54 17 l-58 9 68 2 c65 1 67 0 67 -24z m-567 -42 c12 -20 18 -73 8
-73 -13 0 -81 59 -81 71 0 11 67 12 73 2z m487 -2 c0 -12 -68 -71 -81 -71 -10
0 -4 53 8 73 6 10 73 9 73 -2z m-267 -228 c-7 -2 -19 -2 -25 0 -7 3 -2 5 12 5
14 0 19 -2 13 -5z m-3 -32 c0 -5 3 -16 6 -25 4 -12 0 -16 -15 -16 -20 0 -30
28 -14 43 9 10 23 9 23 -2z m33 -78 c-24 -2 -62 -2 -85 0 -24 2 -5 4 42 4 47
0 66 -2 43 -4z m82 -43 c4 -6 -40 -10 -125 -10 -85 0 -129 4 -125 10 4 6 57
10 125 10 68 0 121 -4 125 -10z"/>
<path d="M1007 539 c-90 -21 -169 -80 -183 -135 -9 -36 14 -91 52 -122 78 -64
248 -83 355 -38 55 22 124 65 117 72 -2 2 -32 -6 -67 -16 -34 -11 -74 -20 -87
-20 -24 0 -24 1 -24 105 0 120 -4 115 90 90 73 -20 77 -19 51 9 -47 50 -204
79 -304 55z m13 -154 c0 -62 -4 -105 -10 -105 -27 0 -93 36 -110 60 -25 36
-25 51 2 85 18 24 87 64 111 65 4 0 7 -47 7 -105z"/>
<path d="M1390 495 c-9 -11 -11 -47 -8 -135 3 -66 8 -123 12 -127 3 -3 17 -1
30 6 20 11 28 10 48 -3 21 -14 27 -14 53 0 19 10 32 11 39 4 13 -13 49 -13 63
1 8 8 16 7 31 -2 16 -10 25 -9 54 9 32 20 35 20 51 5 14 -14 22 -15 45 -7 19
7 33 7 44 0 12 -7 24 -6 41 3 21 11 28 11 50 -4 24 -15 29 -15 57 -2 l30 15 0
-109 0 -110 28 3 27 3 3 109 c3 110 11 136 41 136 14 -1 13 -3 -3 -15 -30 -23
-13 -45 36 -45 24 0 49 4 57 9 7 5 25 4 42 -2 21 -8 37 -8 59 0 22 8 38 8 60
0 36 -14 63 -1 68 32 5 34 47 28 62 -9 14 -34 19 -36 45 -16 16 12 22 12 41 0
15 -11 28 -12 46 -5 25 9 66 61 49 61 -5 0 -13 -5 -16 -10 -10 -16 -37 -11
-62 12 -21 20 -24 20 -41 5 -16 -15 -20 -15 -33 -1 -23 23 -129 9 -129 -17 0
-11 -5 -19 -11 -19 -7 0 -8 11 -4 30 8 38 3 38 -35 0 -39 -39 -68 -40 -72 -3
-4 38 -33 42 -50 6 -16 -34 -58 -45 -58 -15 0 39 -30 49 -82 27 -15 -6 -18 -2
-18 19 0 36 -23 33 -41 -6 -22 -49 -43 -57 -74 -28 -25 24 -27 24 -55 8 -25
-14 -29 -14 -44 0 -14 14 -17 14 -36 -3 -19 -17 -21 -17 -38 -2 -24 22 -35 21
-57 -3 -22 -24 -51 -26 -73 -4 -15 15 -17 15 -34 -6 -10 -13 -21 -20 -25 -16
-4 3 2 12 12 20 12 9 14 15 7 20 -11 6 -42 -7 -85 -37 -15 -10 -21 -9 -32 7
-8 10 -16 24 -18 30 -2 7 -13 4 -30 -7 l-27 -17 0 110 c0 87 -3 110 -14 110
-7 0 -19 -7 -26 -15z"/>
<path d="M2244 385 c-4 -9 -2 -21 4 -27 16 -16 47 -5 47 17 0 26 -42 34 -51
10z"/>
<path d="M2650 319 c0 -5 5 -7 10 -4 6 3 10 8 10 11 0 2 -4 4 -10 4 -5 0 -10
-5 -10 -11z"/>
</g>
</svg>
